<svg width="40" height="40" viewBox="0 0 40 40" fill="none" xmlns="http://www.w3.org/2000/svg">
<rect width="40" height="40" fill="#0060A8"/>
<path fill-rule="evenodd" clip-rule="evenodd" d="M0 40H40V0H0V40ZM0.557617 39.4432H39.4444V0.556641H0.557617V39.4432Z" fill="#FEFEFE"/>
<path fill-rule="evenodd" clip-rule="evenodd" d="M37.9536 31.6984C37.5312 31.6984 37.1875 31.3481 37.1875 30.9179C37.1875 30.4873 37.5312 30.1367 37.9536 30.1367C38.3763 30.1367 38.7199 30.4873 38.7199 30.9179C38.7199 31.3481 38.3763 31.6984 37.9536 31.6984ZM37.9531 29.9902C37.4514 29.9902 37.043 30.4065 37.043 30.9179C37.043 31.4294 37.4514 31.8454 37.9531 31.8454C38.4551 31.8454 38.8635 31.4294 38.8635 30.9179C38.8635 30.4065 38.4551 29.9902 37.9531 29.9902Z" fill="#FEFEFE"/>
<path fill-rule="evenodd" clip-rule="evenodd" d="M37.9111 30.8962V30.5963H38.1533C38.2847 30.5963 38.4511 30.6155 38.4511 30.7382C38.4511 30.8771 38.33 30.8962 38.1673 30.8962H37.9111ZM38.7392 30.7578C38.7392 30.5102 38.5353 30.4199 38.1716 30.4199H37.625V31.5628H37.9121V31.0746H38.0921L38.4451 31.5628H38.7462L38.3586 31.0636C38.5728 31.0499 38.7392 30.9681 38.7392 30.7578Z" fill="#FEFEFE"/>
<path fill-rule="evenodd" clip-rule="evenodd" d="M19.1824 25.7907C20.1072 25.8519 21.1247 25.8213 22.053 25.7047C23.2987 25.5625 24.573 25.2545 26.1816 24.707C26.548 24.8427 26.9457 24.9502 27.3429 25.0216C26.2464 26.0382 25.4932 27.0462 25.0402 28.0993C24.7846 28.6942 24.6271 29.2187 24.5561 29.6787L24.5508 29.6736L24.3739 29.4905L24.2907 29.4045L24.2436 29.5153C24.0849 29.889 23.1134 31.037 21.7612 31.5325C19.8815 32.2213 18.9075 31.7113 18.4943 31.3462C18.0192 30.9267 17.8552 30.4713 18.0069 29.9936C18.2462 29.2379 19.2194 28.6382 19.9426 28.5725C20.0562 28.5622 20.1943 28.5556 20.3409 28.5482C21.0795 28.5125 22.2131 28.4576 22.8539 27.8036C23.0192 27.6345 23.179 27.3807 23.2348 27.1607C23.2684 27.0285 23.2339 26.8216 23.0902 26.7027C22.9068 26.5507 22.5679 26.545 22.0239 26.6839C21.2393 26.9125 20.5307 27.0999 19.7744 27.0885C19.4465 27.0567 19.0305 27.0159 18.9234 26.6622C18.8447 26.345 19.0101 26.0473 19.1824 25.7907ZM27.7065 21.934C28.3574 21.9397 28.6189 22.1151 28.717 22.2185C28.814 22.3217 28.8306 22.4182 28.7829 22.5245C28.5584 23.0262 26.7972 23.7917 26.0892 24.0637C26.0665 24.042 26.0514 24.0014 26.0242 23.9022C25.9886 23.77 26.0842 23.6942 26.2563 23.572C26.4396 23.4422 26.6672 23.2805 26.587 22.9651C26.5593 22.8294 26.3572 22.7377 26.1172 22.756C25.7851 22.7814 25.4224 23.0168 25.3226 23.5894C25.2786 23.8414 25.3245 24.0768 25.5137 24.2968C23.6794 25.0102 21.2952 25.4565 19.4746 25.4282C20.8125 24.0065 24.0943 21.902 27.7065 21.934ZM37.7728 21.9382C37.8367 21.961 37.9168 22.001 37.9367 22.0662C37.9614 22.1462 37.9379 22.2416 37.8585 22.3527C37.1356 23.3647 32.7755 24.8827 28.9463 24.791C32.1712 22.6402 36.7435 21.5716 37.7728 21.9382ZM32.9205 28.2058C33.9055 27.073 35.0256 26.219 36.2511 25.671C36.6278 25.5024 37.0601 25.3793 37.3412 25.5596C37.4528 25.6284 37.5214 25.7358 37.5506 25.8884C37.665 26.4761 37.1503 27.4941 36.8496 27.9084C35.1669 30.2267 33.3337 31.0821 32.275 31.1064C31.9129 31.1147 31.7298 31.0238 31.6648 30.943C31.5855 30.8441 31.5361 30.7193 31.5361 30.5678C31.5361 30.089 31.993 29.2724 32.9205 28.2058ZM17.0459 24.8001C17.0459 25.0161 17.1737 25.179 17.2581 25.2647C17.4299 25.4398 17.683 25.5584 18.0177 25.6181C17.6842 26.0701 17.5617 26.5287 17.6816 26.889C17.7534 27.1047 17.9488 27.3884 18.4713 27.5127C19.0195 27.6324 19.6334 27.6172 20.4227 27.4598C20.7398 27.3961 21.2376 27.3398 21.4156 27.3398C21.5487 27.3398 21.8128 27.3621 21.926 27.4327C22.0188 27.4907 22.023 27.5681 21.9958 27.6312C21.9509 27.7361 21.8287 27.7972 21.5969 27.8704C21.5666 27.8798 21.5378 27.8892 21.5097 27.8987C21.1274 28.0212 20.6879 28.0478 20.2632 28.0735C20.129 28.0818 19.9905 28.0904 19.8551 28.1015C18.7151 28.1607 17.791 28.5598 17.1847 29.2558C16.797 29.7715 16.6698 30.2664 16.8032 30.7315C17.2301 32.0524 18.7317 32.3138 19.3573 32.365C20.5284 32.4604 21.7912 32.1512 22.8213 31.5161C23.5167 31.0755 24.1693 30.425 24.5387 29.8092C24.4717 30.375 24.5482 30.8344 24.7778 31.1758C25.2196 31.8324 26.054 31.8295 26.2169 31.8218C27.6837 31.7567 29.8336 30.5675 31.0793 29.6867C30.9156 30.1198 30.8043 30.5084 30.8761 31.0615C30.9632 31.5567 31.4249 31.7201 31.865 31.8152C32.8174 31.9484 33.7839 31.7278 34.9124 31.1232C35.7934 30.6212 36.6674 29.8338 37.3757 28.9055C37.7799 28.3761 38.7991 26.7384 38.426 25.5335C38.3061 25.1455 37.8556 24.9052 37.3449 24.885C37.0119 24.8721 34.8953 25.1055 32.4393 27.5521C32.0105 27.9795 31.6601 28.5567 31.4731 28.8081C31.2898 28.9407 28.0579 31.2572 26.188 31.257C25.9646 31.257 25.6994 31.2218 25.5573 31.139C25.321 31.0032 25.2403 30.6984 25.2403 30.373C25.2403 30.1692 25.272 29.9512 25.307 29.7427C25.5691 28.1798 26.6996 26.5238 28.4102 25.1961C28.9526 25.2304 29.5312 25.2181 30.0422 25.207C32.3098 25.1958 36.5872 24.2878 38.3988 22.8347C38.592 22.6795 38.9224 22.2918 38.7896 21.9341C38.6035 21.433 37.5812 21.2324 35.7508 21.3378C34.4014 21.4155 33.0232 21.737 31.655 22.2938C30.1066 22.9481 28.8259 23.7247 27.7412 24.6675C27.6108 24.643 27.1595 24.5547 26.8425 24.4495C27.5926 24.1418 29.379 23.3898 29.5149 22.527C29.539 22.3758 29.5174 22.2047 29.4106 22.0452C29.2727 21.839 29.1687 21.7712 28.9924 21.6881C28.5807 21.4941 28.0285 21.3867 27.344 21.3887C25.6507 21.3932 23.6911 22.0592 22.9665 22.3292C21.0097 23.1198 19.5448 24.0355 18.3586 25.2098C18.1674 25.177 17.7419 25.0652 17.6853 24.8612C17.6104 24.4398 18.0715 24.2027 18.3765 24.0458C18.5803 23.9412 18.7154 23.8747 18.6689 23.7461C18.6055 23.5724 18.2773 23.6358 18.1383 23.6715C17.5942 23.8107 17.0459 24.2152 17.0459 24.8001Z" fill="#FEFEFE"/>
<path fill-rule="evenodd" clip-rule="evenodd" d="M12.0817 22.9274C12.1047 22.9194 14.3822 22.1209 16.3544 21.8866C16.6448 21.8452 17.0784 21.8843 17.2239 21.9334C17.3979 21.992 17.4725 22.1554 17.4725 22.2649C17.4725 22.3709 17.4683 22.5114 17.299 22.672C15.8577 24.0423 12.7794 24.8897 11.5054 25.1954C11.4639 25.206 11.439 25.2117 11.4269 25.2152C10.098 25.4877 8.5712 25.624 6.64355 25.6414C8.17934 24.5643 9.91525 23.698 12.0817 22.9274ZM4.85472 36.1414C4.67869 36.2186 4.46538 36.224 4.37119 36.1549C4.16826 36.0057 4.20245 35.6372 4.24197 35.4443C4.64954 33.5683 6.86954 31.8837 7.5546 31.4043C6.52196 34.2137 5.6135 35.8094 4.85472 36.1414ZM3.64647 31.7597C3.96966 31.7508 4.33349 31.66 4.7161 31.5208C6.09856 31.0166 7.72572 29.8351 8.5627 29.0994C8.48674 29.2694 8.40125 29.4614 8.31772 29.6506C8.1358 30.0637 7.93062 30.5297 7.86979 30.634C7.59594 30.7968 4.51008 32.6728 3.81213 34.5594C3.44549 35.5508 3.65263 36.1006 3.80904 36.3397C3.96097 36.5728 4.1925 36.7171 4.42851 36.7257C6.49911 36.8268 8.36425 32.1474 8.97755 30.6097L9.06753 30.3854C10.0107 29.9123 11.6396 28.8183 12.3176 28.2283C11.9474 29.146 11.0938 30.9688 10.7205 31.6163L10.6305 31.7788C10.6305 31.7788 11.7444 31.5086 12.1066 31.4028L12.1346 31.3946L12.1511 31.37C13.5215 29.2897 14.3605 27.8014 14.7282 27.1206C14.645 27.9774 14.8656 28.4063 15.0848 28.6208C15.3497 28.8794 15.7455 28.9608 16.1996 28.8494C16.8201 28.6977 17.533 28.1906 17.9332 27.7831L17.9952 27.7197L17.9276 27.6626C17.8533 27.5994 17.7121 27.4777 17.7006 27.4663L17.6493 27.5091C16.833 28.198 16.2021 28.4508 15.9181 28.2023C15.5977 27.9217 15.6945 26.8814 16.5045 25.5054L16.5903 25.3597L16.4252 25.3828C15.9282 25.452 15.1647 25.5566 15.1226 25.56C15.0786 25.5677 15.0669 25.6003 15.0669 25.6003L14.363 26.8637C13.9341 27.6397 13.5232 28.3837 13.077 29.1168C13.2547 28.6848 13.461 28.1694 13.6398 27.7194C14.1225 26.5037 14.2896 26.0566 14.3428 25.8871C14.3815 25.7648 14.3896 25.6877 14.3793 25.6903L14.2677 25.7174C14.224 25.7283 13.2909 25.9091 13.2163 25.9126C13.1748 25.9171 13.1614 25.9311 13.1583 25.9348C13.1538 25.9408 13.1434 25.9431 13.1106 26.0266C13.0745 26.1186 13.0176 26.2908 12.9102 26.6203C12.8398 26.8357 12.7672 27.0583 12.7106 27.2183C11.8445 28.1194 10.0287 29.346 9.36969 29.7797C9.80052 28.9417 10.5921 27.6817 11.0854 26.8974C11.3879 26.4166 11.5165 26.1991 11.5451 26.1411C11.5723 26.0874 11.5919 26.0363 11.5942 26.0106C11.5942 26.0106 11.4661 26.0374 11.433 26.0448C11.257 26.0866 10.728 26.1428 10.1666 26.1968L10.1299 26.2003L10.1086 26.2311C9.76548 26.73 9.46528 27.3246 9.17488 27.8991L9.14657 27.9554C8.41442 28.784 5.47881 31.1706 3.83651 31.2171C3.49987 31.2268 3.18621 31.1103 3.05755 30.952C2.9387 30.8057 2.89638 30.6094 2.89722 30.4286C2.89946 30.0768 3.07577 29.6951 3.24311 29.366C3.43596 28.9883 3.66469 28.6311 3.99124 28.1886C4.61239 27.346 5.31988 26.6286 6.13359 26.0134C7.37506 26.0657 8.34603 26.0954 9.49611 26.0166C13.3957 25.7497 15.3886 24.8571 17.3407 23.5031C17.5316 23.3706 18.0742 22.866 18.0695 22.3066C18.0672 22.0374 17.9046 21.73 17.5767 21.5297C17.2207 21.3126 16.7153 21.2203 16.1188 21.2648C10.6678 21.6708 6.58909 24.236 5.16879 25.5543C5.02444 25.55 4.62725 25.4346 4.47616 25.2197C4.40385 25.1171 4.39572 25.0048 4.4515 24.8774C4.51008 24.7477 4.62416 24.6811 4.74497 24.6106C4.8257 24.5631 4.91344 24.512 4.98744 24.4371C5.03088 24.3934 5.07461 24.3371 5.1032 24.2666C5.1374 24.1808 5.1217 24.0446 5.03285 23.9454C5.00033 23.9091 4.89213 23.854 4.7475 23.87C4.56614 23.89 4.25781 24.012 3.922 24.4674C3.76055 24.6866 3.70757 25.0574 3.81969 25.2946C3.98928 25.652 4.45907 25.8148 4.80356 25.8877C4.77104 25.92 4.73544 25.9554 4.69564 25.9946C4.04338 26.6374 2.51544 28.1426 2.17319 29.6483C1.99576 30.4288 2.06696 31.0077 2.38454 31.3691C2.78313 31.8234 3.44465 31.7651 3.64647 31.7597Z" fill="#FEFEFE"/>
</svg>
